# xmcd
#
# Track frame offsets:
#	150
#	11896
#	29241
#	42551
#	54161
#	71373
#	87399
#	106727
#	116840
#	130744
#	145499
#	161132
#	176306
#	190286
#	207253
#	224652
#	240643
#	256424
#	270909
#	289576
#
# Disc length: 4021 seconds
#
# Revision: 4
# Processed by: cddbd v1.5.1PL0 Copyright (c) Steve Scherf et al.
# Submitted via: audiograbber 1.83.01
#
DISCID=2f0fb314
DTITLE=1996-11 Country Radio - 1996-11 Country Radio
DYEAR=1996
DGENRE=Country
TTITLE0=Alan Jackson - Little Bitty
TTITLE1=John Michael Montgomery - Friends
TTITLE2=Keith Perry - All I Give A Darn About Is You
TTITLE3=Royal Wade Kimes - Leave My Mama Out Of This
TTITLE4=Crystal Bernard - Have We Forgotten What Love Is
TTITLE5=Michelle Lynn - She Loves Me
TTITLE6=Gene Watson - Change Her Mind
TTITLE7=3 Hanks - Move It On Over
TTITLE8=Michelle Wright - The Answer Is Yes
TTITLE9=Tracy Lawrence - Is That A Tear
TTITLE10=George Ducas - Everytime She Passes By
TTITLE11=Jim Auston - My Hat's Off To Him
TTITLE12=Steve Kolander - Still Crazy 'Bout You
TTITLE13=Lyle Lovett - Private Conversation
TTITLE14=Ballie and The Boys - Some Kind Of Luck
TTITLE15=Western Flyer - Lost In You
TTITLE16=Tony Toliver - He's On The Way Home
TTITLE17=Dan Seals - One Friend
TTITLE18=Pat Payne - The Next Waltz
TTITLE19=Hank Cochran and Billy Don Burns - Desperate
EXTD=
EXTT0=
EXTT1=
EXTT2=
EXTT3=
EXTT4=
EXTT5=
EXTT6=
EXTT7=
EXTT8=
EXTT9=
EXTT10=
EXTT11=
EXTT12=
EXTT13=
EXTT14=
EXTT15=
EXTT16=
EXTT17=
EXTT18=
EXTT19=
PLAYORDER=
